HIERARCHY
ROOT Hips
{
	OFFSET 0.000000 0.000000 0.000000 
	CHANNELS 6 Xposition Yposition Zposition Zrotation Yrotation Xrotation
	JOINT LeftUpLeg
	{
		OFFSET 1.363060 -1.794630 0.839290 
		CHANNELS 3 Zrotation Yrotation Xrotation
		JOINT LeftLeg
		{
			OFFSET 2.448110 -6.726130 0.000000 
			CHANNELS 3 Zrotation Yrotation Xrotation
			JOINT LeftFoot
			{
				OFFSET 2.562200 -7.039590 0.000000 
				CHANNELS 3 Zrotation Yrotation Xrotation
				JOINT LeftToeBase
				{
					OFFSET 0.157640 -0.433110 2.322550 
					CHANNELS 3 Zrotation Yrotation Xrotation
					End Site
					{
						OFFSET 0.000000 0.000000 0.000000 
					}
				}
			}
		}
	}
	JOINT RightUpLeg
	{
		OFFSET -1.305520 -1.794630 0.839290 
		CHANNELS 3 Zrotation Yrotation Xrotation
		JOINT RightLeg
		{
			OFFSET -2.542530 -6.985550 0.000000 
			CHANNELS 3 Zrotation Yrotation Xrotation
			JOINT RightFoot
			{
				OFFSET -2.568260 -7.056230 0.000000 
				CHANNELS 3 Zrotation Yrotation Xrotation
				JOINT RightToeBase
				{
					OFFSET -0.164730 -0.452590 2.363150 
					CHANNELS 3 Zrotation Yrotation Xrotation
					End Site
					{
						OFFSET 0.000000 0.000000 0.000000 
					}
				}
			}
		}
	}
	JOINT Spine
	{
		OFFSET 0.028270 2.035590 -0.193380 
		CHANNELS 3 Zrotation Yrotation Xrotation
		JOINT Spine1
		{
			OFFSET 0.056720 2.048850 -0.042750 
			CHANNELS 3 Zrotation Yrotation Xrotation
			JOINT Neck1
			{
				OFFSET -0.054170 1.746240 0.172020 
				CHANNELS 3 Zrotation Yrotation Xrotation
				JOINT Head
				{
					OFFSET 0.104070 1.761360 -0.123970 
					CHANNELS 3 Zrotation Yrotation Xrotation
					End Site
					{
						OFFSET 0.000000 0.000000 0.000000 
					}
				}
			}
			JOINT LeftArm
			{
				OFFSET 3.362410 1.200890 -0.311210 
				CHANNELS 3 Zrotation Yrotation Xrotation
				JOINT LeftForeArm
				{
					OFFSET 4.983000 -0.000000 -0.000000 
					CHANNELS 3 Zrotation Yrotation Xrotation
					JOINT LeftHand
					{
						OFFSET 3.483560 -0.000000 -0.000000 
						CHANNELS 3 Zrotation Yrotation Xrotation
						JOINT LeftHandIndex1
						{
							OFFSET 0.715260 -0.000000 -0.000000 
							CHANNELS 3 Zrotation Yrotation Xrotation
							End Site
							{
								OFFSET 0.000000 0.000000 0.000000 
							}
						}
					}
				}
			}
			JOINT RightArm
			{
				OFFSET -3.136600 1.374050 -0.404650 
				CHANNELS 3 Zrotation Yrotation Xrotation
				JOINT RightForeArm
				{
					OFFSET -5.241900 -0.000000 -0.000000 
					CHANNELS 3 Zrotation Yrotation Xrotation
					JOINT RightHand
					{
						OFFSET -3.444170 -0.000000 -0.000000 
						CHANNELS 3 Zrotation Yrotation Xrotation
						JOINT RightHandIndex1
						{
							OFFSET -0.622530 -0.000000 -0.000000 
							CHANNELS 3 Zrotation Yrotation Xrotation
							End Site
							{
								OFFSET 0.000000 0.000000 0.000000 
							}
						}
					}
				}
			}
		}
	}
}
MOTION
Frames: 13
Frame Time: 0.041667
8.455095 23.793656 5.032866 177.043573 2.173333 -165.067850 -30.506313 -13.471832 -10.675170 0.373013 5.662992 16.453056 2.157119 -7.710155 -24.548147 10.639900 -17.754300 -61.606600 12.773726 23.518736 -54.110124 -3.720531 -15.970901 42.208452 -0.630151 -4.220936 -17.977104 -3.399800 11.315800 -33.352400 0.774063 -0.859622 -3.935852 3.776276 -0.572463 1.517042 6.283736 -0.819584 22.072632 1.959600 0.637900 9.177100 -85.636084 -9.045502 32.800152 22.030190 -32.925076 -7.630055 0.183539 1.398830 15.206983 -7.125000 0.000000 0.000000 84.500977 -11.372884 -40.517105 -0.300247 9.461711 -1.752497 -0.867625 -1.643004 39.115299 7.125000 0.000000 0.000000 
8.467345 23.788390 4.786886 177.090211 1.760602 -165.150831 -30.606031 -12.949608 -9.411469 0.331202 5.440209 15.928136 2.183260 -7.989629 -24.582310 10.729800 -17.800300 -61.900800 12.219399 23.770404 -54.820338 -2.859233 -14.919679 38.382950 -0.518681 -3.690885 -16.027367 -3.435100 11.368100 -33.531600 0.846118 -1.079536 -3.903848 3.968085 -0.663916 1.590020 7.448650 -1.005134 21.553299 2.585200 0.537500 8.717600 -85.406102 -9.264911 33.461777 23.094289 -33.982626 -8.217982 0.171644 1.417021 15.386025 -7.125000 0.000000 0.000000 84.843297 -11.834376 -44.199990 -0.244607 8.415362 -1.665723 -0.963843 -1.583977 41.940350 7.125000 0.000000 0.000000 
8.481638 23.778826 4.535748 177.135251 1.373891 -165.280607 -30.689620 -12.420267 -8.151299 0.301766 5.264660 15.535462 2.214208 -8.177743 -24.669388 10.820300 -17.846000 -62.196700 12.038375 23.761995 -55.221273 -2.261726 -14.067770 35.448906 -0.464479 -2.951067 -14.732268 -3.173900 10.971400 -32.183500 0.913368 -1.336461 -3.878878 3.981106 -1.052684 1.695280 7.527026 -1.126221 21.465293 2.571700 0.494600 8.638100 -85.061965 -9.609928 34.172686 23.800132 -34.681706 -8.643352 0.176349 1.439947 15.588920 -7.125000 0.000000 0.000000 85.321876 -12.306502 -47.728694 -0.205138 7.413504 -1.580617 -1.070697 -1.520630 44.719125 7.125000 0.000000 0.000000 
8.497542 23.765178 4.276980 176.988266 0.950662 -165.413291 -31.041741 -11.946881 -6.883350 0.285341 5.124959 15.243497 2.229008 -8.358489 -24.669276 10.908000 -17.889800 -62.482500 11.780698 23.672857 -55.681009 -1.796234 -13.262866 32.891543 -0.207858 -4.497940 -7.512203 -5.989700 14.418300 -44.940300 0.919374 -1.471956 -3.871120 3.895796 -1.110357 1.720054 7.437758 -1.343788 21.256333 2.459600 0.397200 8.444700 -84.739514 -9.879904 34.861670 24.339158 -35.190512 -8.939112 0.205990 1.440897 15.646737 -7.125000 0.000000 0.000000 85.950621 -12.934509 -51.733330 -0.250449 6.372298 -1.490220 -1.183874 -1.436744 48.054606 7.125000 0.000000 0.000000 
8.517853 23.753680 4.020469 176.776198 0.418086 -165.570266 -31.351671 -11.616147 -5.715226 0.294752 5.060281 15.175925 2.249371 -8.573209 -24.694091 11.003700 -17.936900 -62.793400 11.451328 23.322984 -55.679935 -1.490529 -12.775923 31.228574 -0.265025 -3.780810 -10.130473 -2.496700 9.831900 -28.434000 0.955904 -1.686102 -3.867089 3.951060 -1.221255 1.742882 7.526992 -1.459150 21.255631 2.504900 0.342800 8.392300 -84.555495 -10.338153 35.321909 24.828475 -35.597761 -9.150737 0.232855 1.418872 15.120772 -7.125000 0.000000 0.000000 86.367814 -13.335368 -56.153366 -0.433395 5.290835 -1.400099 -1.291702 -1.312556 52.059865 7.125000 0.000000 0.000000 
8.545255 23.744008 3.762453 176.764872 -0.101952 -165.665771 -31.354712 -11.389799 -4.702646 0.319980 5.073400 15.292631 2.264185 -8.761292 -24.710590 11.105900 -17.986500 -63.124900 11.660863 23.129274 -55.677743 -1.349840 -12.549446 30.522974 -0.217526 -5.161829 -8.058273 -2.501100 9.839800 -28.459700 1.010519 -1.800241 -3.856604 4.038079 -1.273451 1.787129 7.832029 -1.583565 21.359273 2.669400 0.298000 8.413100 -84.365718 -10.873638 35.931917 24.922808 -35.657337 -9.165879 0.237998 1.411028 14.940125 -7.125000 0.000000 0.000000 86.746733 -13.639803 -60.315880 -0.676028 4.328120 -1.322297 -1.380929 -1.201727 55.677200 7.125000 0.000000 0.000000 
8.572658 23.733047 3.479613 176.451580 -0.708227 -166.033577 -31.786349 -11.058286 -3.208408 0.342059 5.027317 15.297486 2.255141 -8.978946 -24.558647 11.230200 -18.045900 -63.526900 11.886512 22.590572 -55.092503 -1.400096 -12.621186 30.834849 -0.202032 -6.440834 -5.829412 -2.837000 10.426400 -30.368900 1.031517 -1.942796 -3.796686 4.123052 -1.376940 1.995998 7.923211 -1.735155 21.558399 2.710000 0.247500 8.464200 -84.277386 -11.181288 36.301262 24.832909 -35.588352 -9.121783 0.256674 1.413476 15.088731 -7.125000 0.000000 0.000000 87.044669 -13.760521 -65.212529 -1.078731 3.287747 -1.235683 -1.462269 -1.061676 60.167327 7.125000 0.000000 0.000000 
8.607046 23.737453 3.204081 176.706766 -1.371001 -166.134548 -31.367888 -10.998511 -2.201317 0.371857 5.066522 15.475851 2.214359 -8.999737 -24.276362 11.368700 -18.110900 -63.973300 12.691331 22.439863 -54.557140 -1.476514 -12.724396 31.311802 -0.240161 -7.600163 -2.884602 -0.918900 6.107500 -17.096700 1.157210 -2.223366 -3.751586 4.264450 -1.533771 2.289107 7.716708 -1.680289 21.779488 2.660800 0.254800 8.574500 -84.518314 -11.686294 36.050756 24.440490 -35.228682 -8.924196 0.266370 1.420301 15.438071 -7.125000 0.000000 0.000000 86.920393 -13.548302 -70.115412 -1.607402 2.319220 -1.147358 -1.512321 -0.868305 65.331025 7.125000 0.000000 0.000000 
8.644228 23.748844 2.930483 176.675899 -2.001466 -166.125553 -31.217563 -11.021974 -1.388437 0.423977 5.165782 15.839569 2.154590 -8.967929 -23.890217 11.499000 -18.170700 -64.391600 13.417759 21.863506 -53.968733 -1.804459 -13.302829 33.107286 -0.178726 -6.632798 -6.220170 -1.387800 7.453600 -21.066200 1.234819 -2.415389 -3.738717 4.363309 -1.645595 2.485234 7.506762 -1.731904 22.046303 2.598900 0.219700 8.727800 -84.781824 -12.000875 35.923001 24.023033 -34.845686 -8.701289 0.255592 1.426137 15.908539 -7.125000 0.000000 0.000000 87.010308 -13.465911 -73.539092 -1.998144 1.689552 -1.085677 -1.550693 -0.721727 69.156930 7.125000 0.000000 0.000000 
8.682054 23.764963 2.647644 176.673822 -2.453127 -166.027835 -31.062853 -10.938812 -0.629772 0.479593 5.269853 16.222284 2.073720 -8.879766 -23.379657 11.622400 -18.226400 -64.786900 14.040433 21.655929 -53.290101 -2.048545 -13.748323 34.535964 -0.184495 -6.752493 -9.925753 -1.679100 8.162900 -23.209900 1.247846 -2.391488 -3.761772 4.222793 -1.617640 2.515956 7.554469 -1.930104 22.184354 2.603800 0.149800 8.774000 -84.907292 -11.606003 35.926090 23.847449 -34.726061 -8.626656 0.239691 1.434162 16.489405 -7.125000 0.000000 0.000000 87.525291 -13.568191 -75.805203 -2.277954 1.356510 -1.060462 -1.616246 -0.635792 71.713983 7.125000 0.000000 0.000000 
8.719666 23.793118 2.363193 176.843429 -2.740272 -165.866472 -30.751055 -10.897096 0.059148 0.525559 5.360899 16.554088 1.951367 -8.564657 -22.643412 11.720800 -18.270100 -65.101100 14.710197 21.905004 -52.537674 -2.202090 -13.937037 35.283709 -0.200716 -6.566029 -10.766683 -1.650800 8.097500 -23.010500 1.280987 -2.378696 -3.805485 4.090798 -1.581352 2.479013 7.510290 -1.997025 22.362261 2.576600 0.140100 8.831900 -85.079184 -11.043839 35.697771 23.565055 -34.480732 -8.456633 0.271006 1.416090 16.881565 -7.125000 0.000000 0.000000 87.858284 -13.585158 -76.968341 -2.475868 1.267682 -1.057633 -1.656887 -0.590940 73.151136 7.125000 0.000000 0.000000 
8.755343 23.839327 2.089057 177.120416 -2.784888 -165.684665 -30.394896 -10.994685 0.627487 0.574152 5.488876 16.974463 1.802849 -7.929744 -21.782866 11.811700 -18.309900 -65.390700 15.206736 22.615648 -52.157284 -2.403603 -14.223381 36.322946 -0.223050 -6.612677 -11.916226 -1.434900 7.573800 -21.426900 1.328461 -2.302929 -3.845419 4.019119 -1.525897 2.442462 7.188273 -1.948641 22.759722 2.394600 0.197900 9.111900 -85.348771 -10.575194 35.270588 23.122733 -34.072694 -8.209641 0.290841 1.403117 17.042085 -7.125000 0.000000 0.000000 87.910865 -13.386825 -77.359655 -2.543256 1.205006 -1.052646 -1.652623 -0.601203 73.832292 7.125000 0.000000 0.000000 
8.789086 23.905631 1.830827 177.568859 -2.524722 -165.382766 -29.839271 -11.149237 0.800593 0.659522 5.741434 17.716310 1.650518 -7.247403 -20.899529 11.941400 -18.365800 -65.803000 15.758927 23.654900 -51.972510 -2.645563 -14.557790 37.529504 -0.267744 -6.456723 -13.196308 -1.295300 7.210900 -20.341600 1.385161 -2.132346 -3.893952 3.991366 -1.413296 2.315615 6.843911 -1.891449 23.020156 2.217200 0.237500 9.318000 -85.761646 -9.992550 34.474816 22.561307 -33.554903 -7.929777 0.298952 1.400819 17.417683 -7.125000 0.000000 0.000000 87.732927 -13.000299 -76.823744 -2.419121 1.137827 -1.049826 -1.640258 -0.635728 73.838742 7.125000 0.000000 0.000000 
